HIERARCHY
ROOT Hips
{
	OFFSET 0.000000 0.000000 0.000000
	CHANNELS 6 Xposition Yposition Zposition Zrotation Yrotation Xrotation 
	JOINT LHipJoint
	{
		OFFSET 0.000000 0.000000 0.000000
		CHANNELS 3 Zrotation Yrotation Xrotation
		JOINT LeftUpLeg
		{
			OFFSET 1.363060 -1.794630 0.839290
			CHANNELS 3 Zrotation Yrotation Xrotation
			JOINT LeftLeg
			{
				OFFSET 2.448110 -6.726130 0.000000
				CHANNELS 3 Zrotation Yrotation Xrotation
				JOINT LeftFoot
				{
					OFFSET 2.562200 -7.039590 0.000000
					CHANNELS 3 Zrotation Yrotation Xrotation
					JOINT LeftToeBase
					{
						OFFSET 0.157640 -0.433110 2.322550
						CHANNELS 3 Zrotation Yrotation Xrotation
						End Site
						{
							OFFSET 0.000000 0.000000 0.000000
						}
					}
				}
			}
		}
	}
	JOINT RHipJoint
	{
		OFFSET 0.000000 0.000000 0.000000
		CHANNELS 3 Zrotation Yrotation Xrotation
		JOINT RightUpLeg
		{
			OFFSET -1.305520 -1.794630 0.839290
			CHANNELS 3 Zrotation Yrotation Xrotation
			JOINT RightLeg
			{
				OFFSET -2.542530 -6.985550 0.000000
				CHANNELS 3 Zrotation Yrotation Xrotation
				JOINT RightFoot
				{
					OFFSET -2.568260 -7.056230 0.000000
					CHANNELS 3 Zrotation Yrotation Xrotation
					JOINT RightToeBase
					{
						OFFSET -0.164730 -0.452590 2.363150
						CHANNELS 3 Zrotation Yrotation Xrotation
						End Site
						{
							OFFSET 0.000000 0.000000 0.000000
						}
					}
				}
			}
		}
	}
	JOINT LowerBack
	{
		OFFSET 0.000000 0.000000 0.000000
		CHANNELS 3 Zrotation Yrotation Xrotation
		JOINT Spine
		{
			OFFSET 0.028270 2.035590 -0.193380
			CHANNELS 3 Zrotation Yrotation Xrotation
			JOINT Spine1
			{
				OFFSET 0.056720 2.048850 -0.042750
				CHANNELS 3 Zrotation Yrotation Xrotation
				JOINT Neck
				{
					OFFSET 0.000000 0.000000 0.000000
					CHANNELS 3 Zrotation Yrotation Xrotation
					JOINT Neck1
					{
						OFFSET -0.054170 1.746240 0.172020
						CHANNELS 3 Zrotation Yrotation Xrotation
						JOINT Head
						{
							OFFSET 0.104070 1.761360 -0.123970
							CHANNELS 3 Zrotation Yrotation Xrotation
							End Site
							{
								OFFSET 0.000000 0.000000 0.000000
							}
						}
					}
				}
				JOINT LeftShoulder
				{
					OFFSET 0.000000 0.000000 0.000000
					CHANNELS 3 Zrotation Yrotation Xrotation
					JOINT LeftArm
					{
						OFFSET 3.362410 1.200890 -0.311210
						CHANNELS 3 Zrotation Yrotation Xrotation
						JOINT LeftForeArm
						{
							OFFSET 4.983000 -0.000000 -0.000000
							CHANNELS 3 Zrotation Yrotation Xrotation
							JOINT LeftHand
							{
								OFFSET 3.483560 -0.000000 -0.000000
								CHANNELS 3 Zrotation Yrotation Xrotation
								JOINT LeftFingerBase
								{
									OFFSET 0.000000 0.000000 0.000000
									CHANNELS 3 Zrotation Yrotation Xrotation
									JOINT LeftHandIndex1
									{
										OFFSET 0.715260 -0.000000 -0.000000
										CHANNELS 3 Zrotation Yrotation Xrotation
										End Site
										{
											OFFSET 0.000000 0.000000 0.000000
										}
									}
								}
								JOINT LThumb
								{
									OFFSET 0.000000 0.000000 0.000000
									CHANNELS 3 Zrotation Yrotation Xrotation
									End Site
									{
										OFFSET 0.000000 0.000000 0.000000
									}
								}
							}
						}
					}
				}
				JOINT RightShoulder
				{
					OFFSET 0.000000 0.000000 0.000000
					CHANNELS 3 Zrotation Yrotation Xrotation
					JOINT RightArm
					{
						OFFSET -3.136600 1.374050 -0.404650
						CHANNELS 3 Zrotation Yrotation Xrotation
						JOINT RightForeArm
						{
							OFFSET -5.241900 -0.000000 -0.000000
							CHANNELS 3 Zrotation Yrotation Xrotation
							JOINT RightHand
							{
								OFFSET -3.444170 -0.000000 -0.000000
								CHANNELS 3 Zrotation Yrotation Xrotation
								JOINT RightFingerBase
								{
									OFFSET 0.000000 0.000000 0.000000
									CHANNELS 3 Zrotation Yrotation Xrotation
									JOINT RightHandIndex1
									{
										OFFSET -0.622530 -0.000000 -0.000000
										CHANNELS 3 Zrotation Yrotation Xrotation
										End Site
										{
											OFFSET 0.000000 0.000000 0.000000
										}
									}
								}
								JOINT RThumb
								{
									OFFSET 0.000000 0.000000 0.000000
									CHANNELS 3 Zrotation Yrotation Xrotation
									End Site
									{
										OFFSET 0.000000 0.000000 0.000000
									}
								}
							}
						}
					}
				}
			}
		}
	}
}
MOTION
Frames: 5
Frame Time: 0.008333
6.181183 16.514083 2.559265 93.693867 -87.873594 -67.289953 -10.339723 1.975923 -1.250615 -13.781563 1.169906 -30.077715 -1.128759 2.427520 49.898289 0.648228 2.114372 -9.037925 -0.113900 -0.000000 -67.338701 8.935291 0.377029 4.390128 7.421076 4.990364 -54.177646 3.186773 0.150978 10.126414 -0.108347 -1.524823 6.443896 -1.393100 0.000001 -68.343200 1.238877 -4.202186 -1.553598 -0.538259 -4.408388 -3.211652 -7.525397 -4.487091 0.456860 11.784673 -11.299143 -10.717321 -3.901062 -0.253448 -1.019485 0.000000 0.000000 0.000000 0.784271 3.049212 2.321765 -59.021206 -4.172317 9.988988 -1.453031 -66.127441 -0.022288 3.868557 6.137170 0.209605 -0.127081 0.168411 0.000000 0.000000 0.000000 0.000000 0.000000 0.000000 0.000000 20.036213 -9.465716 2.823506 68.356546 -6.690605 -1.800173 3.374341 27.323747 0.012644 2.468328 5.491482 0.116887 0.082057 -0.089153 0.000000 0.000000 0.000000 0.000000 0.000000 0.000000 0.000000 
6.040742 16.486345 2.549105 90.216033 -88.363278 -62.945412 -10.555487 1.728906 -1.339120 -13.281076 1.237081 -33.007503 -0.701905 2.688192 53.855673 0.721756 2.821815 -7.357545 -0.025300 0.000000 -65.468200 8.762383 0.227247 4.585169 7.731148 5.924802 -55.680879 3.134604 -0.073948 12.028838 -0.243338 -2.136488 6.315119 -1.594700 0.000000 -67.470599 1.899394 -4.067719 -1.625352 -0.391803 -4.315560 -3.246419 -7.459542 -4.400422 0.447129 11.594903 -11.276243 -10.843355 -3.842787 -0.247238 -1.062691 0.000000 0.000000 0.000000 0.547466 3.265429 2.362760 -59.594520 -3.533084 10.311122 -1.471762 -65.741953 -0.021925 3.815948 6.174379 0.208280 -0.126379 0.164325 0.000000 0.000000 0.000000 0.000000 0.000000 0.000000 0.000000 19.606328 -9.332280 2.892354 68.590281 -6.824798 -1.402281 3.383809 27.644943 0.012777 2.636204 5.347002 0.121890 0.081824 -0.091226 0.000000 0.000000 0.000000 0.000000 0.000000 0.000000 0.000000 
5.903002 16.454298 2.539793 85.447071 -88.880259 -57.270794 -10.721879 1.452850 -1.428776 -12.816448 1.273925 -36.035960 -0.292971 2.939485 57.759532 0.820914 3.565600 -5.934694 0.073900 0.000001 -61.357900 8.601475 0.100359 4.779021 8.042272 6.896056 -57.301017 3.078384 -0.314298 14.078265 -0.372392 -2.660721 6.010727 -1.756700 -0.000000 -66.600700 2.561784 -3.918509 -1.681973 -0.244073 -4.207212 -3.278391 -7.392071 -4.298597 0.432663 11.422032 -11.265161 -10.984526 -3.780981 -0.240462 -1.112023 0.000000 0.000000 0.000000 0.350225 3.488166 2.405034 -60.205019 -2.872822 10.632083 -1.486399 -65.356205 -0.021494 3.739257 6.238718 0.206449 -0.125061 0.160174 0.000000 0.000000 0.000000 0.000000 0.000000 0.000000 0.000000 19.184905 -9.195467 2.967691 68.790748 -6.946409 -0.890286 3.390629 28.056123 0.012916 2.823837 5.181068 0.126893 0.081444 -0.093354 0.000000 0.000000 0.000000 0.000000 0.000000 0.000000 0.000000 
5.768380 16.417621 2.530405 78.059232 -89.429591 -48.943292 -10.822862 1.178560 -1.516304 -12.402797 1.276871 -39.142886 0.082379 3.193838 61.543781 0.934478 4.303088 -4.904758 0.171700 0.000000 -55.315900 8.470676 0.022456 4.962577 8.337335 7.891184 -59.013323 3.016471 -0.566723 16.258091 -0.492871 -3.090700 5.536110 -1.872400 -0.000000 -65.722400 3.203282 -3.748897 -1.716476 -0.100168 -4.075955 -3.307850 -7.328011 -4.174783 0.403126 11.276557 -11.243506 -11.132157 -3.719707 -0.233526 -1.165333 0.000000 0.000000 0.000000 0.203720 3.693195 2.451247 -60.838371 -2.148783 10.935009 -1.494010 -65.009672 -0.020977 3.634709 6.334611 0.204012 -0.122899 0.155880 0.000000 0.000000 0.000000 0.000000 0.000000 0.000000 0.000000 18.794025 -9.027643 3.051331 68.959339 -7.094333 -0.304596 3.392209 28.594558 0.013081 3.041728 4.998644 0.132298 0.080722 -0.095671 0.000000 0.000000 0.000000 0.000000 0.000000 0.000000 0.000000 
5.636904 16.375940 2.520257 -115.156643 -89.933039 145.252196 -10.859629 0.963647 -1.592553 -12.041895 1.261633 -42.338421 0.409669 3.480827 65.140486 1.050359 4.991666 -4.350217 0.252000 -0.000000 -47.972600 8.379457 0.040938 5.126157 8.612920 8.928967 -60.789788 2.953598 -0.820171 18.541473 -0.601109 -3.431991 4.916711 -1.944701 -0.000000 -64.821301 3.792812 -3.532291 -1.728812 0.031602 -3.893317 -3.334432 -7.270701 -4.000765 0.355151 11.166542 -11.213815 -11.287369 -3.659475 -0.226420 -1.222987 0.000000 0.000000 0.000000 0.107794 3.890812 2.500124 -61.477594 -1.346025 11.217450 -1.492451 -64.726657 -0.020345 3.504274 6.463016 0.200968 -0.119723 0.151301 0.000000 0.000000 0.000000 0.000000 0.000000 0.000000 0.000000 18.444019 -8.818934 3.144570 69.093401 -7.267498 0.348025 3.388306 29.269808 0.013314 3.285933 4.812697 0.138105 0.079716 -0.098413 0.000000 0.000000 0.000000 0.000000 0.000000 0.000000 0.000000 
